inDegrees=yes
name=ik_S54_A03_T01
DataType=double
version=3
OpenSimVersion=4.3-2021-08-27-4bc7ad9
endheader
time	pelvis_tilt	pelvis_list	pelvis_rotation	pelvis_tx	pelvis_ty	pelvis_tz	hip_flexion_r	hip_adduction_r	hip_rotation_r	knee_angle_r	knee_angle_r_beta	ankle_angle_r	subtalar_angle_r	mtp_angle_r	hip_flexion_l	hip_adduction_l	hip_rotation_l	knee_angle_l	knee_angle_l_beta	ankle_angle_l	subtalar_angle_l	mtp_angle_l	lumbar_extension	lumbar_bending	lumbar_rotation	arm_flex_r	arm_add_r	arm_rot_r	elbow_flex_r	pro_sup_r	wrist_flex_r	wrist_dev_r	arm_flex_l	arm_add_l	arm_rot_l	elbow_flex_l	pro_sup_l	wrist_flex_l	wrist_dev_l
0	0	0	0	0	0.9399999999999999	0	0	0	0	0	0	0	0	0	0	0	0	0	0	0	0	0	0	0	0	0	0	0	0	89.99999999963507	0	0	0	0	0	0	89.99999999869995	0	0
0.02	-0.9761360723525394	0.8016847320212738	-79.84924359105942	0	0.9399999999999999	0	-4.100366659121544	4.026963100402875	-1.337050504008229	1.668334687230472	0.02911793331740153	0	0	0	0.5370808703291567	0.4779801178470552	-3.037461366559534	4.014064503591175	0.07005864197509776	0	0	0	0	0	0	1.640217216092682	-1.640217216092683	0.2920565460916831	8.111981981248475	89.70794347070265	0	0	1.640217216092682	-1.640217216092683	0.2920565460916831	8.111981981248475	89.70794346982227	0	0
0.04	-0.9919893415221266	0.8219010348195022	-79.90463993041848	0	0.9399999999999999	0	-4.100764251342577	4.016711796332968	-1.34172393445674	1.668483880281967	0.02912053722737122	0	0	0	0.5655199928432927	0.4605756311595323	-3.09928048102123	4.033528618666172	0.07039835486914352	0	0	0	0	0	0	1.809041440991871	-1.809041440991872	0.3238181264316388	8.637429572769358	89.67618189224059	0	0	1.809041440991871	-1.809041440991872	0.3238181264316388	8.637429572769358	89.67618189136616	0	0
0.06	-0.9885191571187451	0.8151051053591023	-79.93476545343675	0	0.9399999999999999	0	-4.128497942271453	4.007157003605766	-1.369668139004699	1.648793373148551	0.02877687304650569	0	0	0	0.5434718912405179	0.4679571724003498	-3.073313644858826	4.020159537506918	0.07016502038494818	0	0	0	0	0	0	2.674901812935308	-2.67490181293531	0.4857541583760255	11.65135198495358	89.5142458698558	0	0	2.674901812935308	-2.67490181293531	0.4857541583760255	11.65135198495358	89.51424586901179	0	0
0.08	-0.9873880747303529	0.8412120052090234	-79.99210093893694	0	0.9399999999999999	0	-4.125481990924322	3.98719741933692	-1.354475089314294	1.663982776257057	0.02904197814216178	0	0	0	0.5755018497799101	0.4750620679149852	-3.122096266664571	4.005710363134841	0.06991283471796066	0	0	0	0	0	0	2.818499916654537	-2.818499916654539	0.5122929747221477	12.0403327328774	89.48770705507164	0	0	2.818499916654537	-2.818499916654539	0.5122929747221477	12.0403327328774	89.48770705423257	0	0
0.1	-0.9898973398551393	0.8587522402185773	-80.08818013539418	0	0.9399999999999999	0	-4.101889434136075	3.986085281882181	-1.299635388177176	1.66159901833747	0.02900037371789448	0	0	0	0.5479987047125454	0.4913267518816291	-3.105122391229305	3.996319760176539	0.06974893777759077	0	0	0	0	0	0	2.819272734180323	-2.819272734180324	0.5124409001985296	12.04587550972474	89.48755912960407	0	0	2.819272734180323	-2.819272734180324	0.5124409001985296	12.04587550972474	89.48755912876503	0	0
0.12	-0.9827625673164854	0.8301184098052805	-80.12044348599571	0	0.9399999999999999	0	-4.155719683867066	3.976694473452082	-1.29338152400469	1.655568425014881	0.02889512000856653	0	0	0	0.4846208392771224	0.4840498698419192	-3.040832600303	3.963021941244802	0.06916778120349906	0	0	0	0	0	0	3.408798639697484	-3.408798639697483	0.6220281077071829	14.29127363710741	89.37797192855709	0	0	3.408798639697484	-3.408798639697483	0.6220281077071829	14.29127363710741	89.37797192773859	0	0
0.14	-0.9876167200191679	0.9106281543902044	-80.23770022771285	0	0.9399999999999999	0	-4.069466905720692	3.947183371961998	-1.212370573967745	1.651341563200738	0.0288213473528829	0	0	0	0.538626929025409	0.5071545655668138	-3.085175460770133	3.858570088441148	0.06734475246226683	0	0	0	0	0	0	3.41222637359233	-3.412226373592329	0.6226852172056767	14.31455914828387	89.37731481909772	0	0	3.41222637359233	-3.412226373592329	0.6226852172056767	14.31455914828387	89.37731481827929	0	0
0.16	-0.9784370132603555	0.9033783694507092	-80.26395784596741	0	0.9399999999999999	0	-4.082803971624895	3.934257568357912	-1.226776498717204	1.652219676569752	0.02883667332237799	0	0	0	0.5083919303259006	0.532527275072585	-3.049211646201101	3.7677401299249	0.06575947062670844	0	0	0	0	0	0	3.906700642108607	-3.906700642108607	0.7142766829832009	16.29649958782399	89.28572335871696	0	0	3.906700642108607	-3.906700642108607	0.7142766829832009	16.29649958782399	89.28572335791571	0	0
0.18	-0.9915152356522843	0.921637557867399	-80.29758258241752	0	0.9399999999999999	0	-4.057598584477986	3.908695933595989	-1.314491956460548	1.645689581112189	0.02872270165617398	0	0	0	0.4815947087779205	0.5248718260892686	-3.037358777323543	3.745359226833955	0.06536885017820167	0	0	0	0	0	0	3.908154475643331	-3.908154475643331	0.7145534256111834	16.30561742441844	89.28544661610543	0	0	3.908154475643331	-3.908154475643331	0.7145534256111834	16.30561742441844	89.28544661530424	0	0
0.2	-0.9989837323085486	0.943287357975269	-80.39412421520379	0	0.9399999999999999	0	-4.031145591627912	3.89961761725943	-1.247735238695526	1.657169791709347	0.02892306912991673	0	0	0	0.4730187050653646	0.533363604494842	-3.059874670774004	3.674523853834109	0.06413253969247606	0	0	0	0	0	0	3.911232645593355	-3.911232645593355	0.715139861685584	16.32497906278911	89.28486018006586	0	0	3.911232645593355	-3.911232645593355	0.715139861685584	16.32497906278911	89.28486017926475	0	0
